# xmcd CD database file
#
# Track frame offsets:
#	150
#	15988
#	31016
#	51011
#	69872
#	85778
#	99047
#	119608
#	134364
#	149955
#	165087
#	181015
#	202693
#	220746
#	237575
#	252094
#	267187
#	279298
#	291019
#	306943
#	319409
#	335241
#	349104
#
# Disc length: 4792 seconds
#
# Revision: 0
# Processed by: cddbd v1.5.2PL0 Copyright (c) Steve Scherf et al.
# Submitted via: CDex 1.51
#
DISCID=4412b617
DTITLE=Renee Olstead (1-11) Madeleine Pyroux (12-23) - RO (minus track 1) - Dreamland
DYEAR=1900
DGENRE=Jazz
TTITLE0=Renee Olstead - Taking a chance on love
TTITLE1=Renee Olstead - Is you or is you aint my baby
TTITLE2=Renee Olstead - Someone to watch over me
TTITLE3=Renee Olstead - Breaking up is hard to do
TTITLE4=Renee Olstead - A love that will last
TTITLE5=Renee Olstead - Meet me, midnight
TTITLE6=Renee Olstead - Sunday kind of love
TTITLE7=Renee Olstead - On a slow boat to china
TTITLE8=Renee Olstead - What a difference a day makes
TTITLE9=Renee Olstead - Midnight at the oasis
TTITLE10=Renee Olstead - Sentimental journey
TTITLE11=Madeleine Peyroux - Walkin' After Midnight
TTITLE12=Madeleine Peyroux - Hey Sweet Man
TTITLE13=Madeleine Peyroux - I'm Gonna Sit Right Down And W
TTITLE14=Madeleine Peyroux - (Getting Some) Fun Out Of Life
TTITLE15=Madeleine Peyroux - La Vie En Rose
TTITLE16=Madeleine Peyroux - Always A Use
TTITLE17=Madeleine Peyroux - A Prayer
TTITLE18=Madeleine Peyroux - Muddy Water
TTITLE19=Madeleine Peyroux - Was I?
TTITLE20=Madeleine Peyroux - Dreamland
TTITLE21=Madeleine Peyroux - Reckless Blues
TTITLE22=Madeleine Peyroux - Lovesick Blues
EXTD=
EXTT0=
EXTT1=
EXTT2=
EXTT3=
EXTT4=
EXTT5=
EXTT6=
EXTT7=
EXTT8=
EXTT9=
EXTT10=
EXTT11=
EXTT12=
EXTT13=
EXTT14=
EXTT15=
EXTT16=
EXTT17=
EXTT18=
EXTT19=
EXTT20=
EXTT21=
EXTT22=
PLAYORDER=
